<?xml version="1.0" encoding="UTF-8"?>
<!DOCTYPE svg PUBLIC "-//W3C//DTD SVG 1.1//EN"
    "http://www.w3.org/Graphics/SVG/1.1/DTD/svg11.dtd"><svg xmlns="http://www.w3.org/2000/svg" height="533.3333" stroke-opacity="1" viewBox="0 0 400 533" font-size="1" width="400.0000" xmlns:xlink="http://www.w3.org/1999/xlink" stroke="rgb(0,0,0)" version="1.1"><defs></defs><g stroke-linejoin="miter" stroke-opacity="1.0" fill-opacity="0.0" stroke="rgb(0,0,0)" stroke-width="1.8475208614068024" fill="rgb(0,0,0)" stroke-linecap="butt" stroke-miterlimit="10.0"><path d="M 336.2796,466.6667 c 0.0000,-1.6272 -1.3191,-2.9463 -2.9463 -2.9463c -1.6272,-0.0000 -2.9463,1.3191 -2.9463 2.9463c -0.0000,1.6272 1.3191,2.9463 2.9463 2.9463c 1.6272,0.0000 2.9463,-1.3191 2.9463 -2.9463Z"/></g><g stroke-linejoin="miter" stroke-opacity="1.0" fill-opacity="0.0" stroke="rgb(0,0,0)" stroke-width="1.8475208614068024" fill="rgb(0,0,0)" stroke-linecap="butt" stroke-miterlimit="10.0"><path d="M 337.5000,333.3333 c 0.0000,-2.3012 -1.8655,-4.1667 -4.1667 -4.1667c -2.3012,-0.0000 -4.1667,1.8655 -4.1667 4.1667c -0.0000,2.3012 1.8655,4.1667 4.1667 4.1667c 2.3012,0.0000 4.1667,-1.8655 4.1667 -4.1667Z"/></g><g stroke-linejoin="miter" stroke-opacity="1.0" fill-opacity="0.0" stroke="rgb(0,0,0)" stroke-width="1.8475208614068024" fill="rgb(0,0,0)" stroke-linecap="butt" stroke-miterlimit="10.0"><path d="M 205.8926,333.3333 c 0.0000,-3.2544 -2.6382,-5.8926 -5.8926 -5.8926c -3.2544,-0.0000 -5.8926,2.6382 -5.8926 5.8926c -0.0000,3.2544 2.6382,5.8926 5.8926 5.8926c 3.2544,0.0000 5.8926,-2.6382 5.8926 -5.8926Z"/></g><g stroke-linejoin="miter" stroke-opacity="1.0" fill-opacity="0.0" stroke="rgb(0,0,0)" stroke-width="1.8475208614068024" fill="rgb(0,0,0)" stroke-linecap="butt" stroke-miterlimit="10.0"><path d="M 75.0000,333.3333 c 0.0000,-4.6024 -3.7310,-8.3333 -8.3333 -8.3333c -4.6024,-0.0000 -8.3333,3.7310 -8.3333 8.3333c -0.0000,4.6024 3.7310,8.3333 8.3333 8.3333c 4.6024,0.0000 8.3333,-3.7310 8.3333 -8.3333Z"/></g><g stroke-linejoin="miter" stroke-opacity="1.0" fill-opacity="0.0" stroke="rgb(0,0,0)" stroke-width="1.8475208614068024" fill="rgb(0,0,0)" stroke-linecap="butt" stroke-miterlimit="10.0"><path d="M 356.9036,200.0000 c 0.0000,-13.0175 -10.5527,-23.5702 -23.5702 -23.5702c -13.0175,-0.0000 -23.5702,10.5527 -23.5702 23.5702c -0.0000,13.0175 10.5527,23.5702 23.5702 23.5702c 13.0175,0.0000 23.5702,-10.5527 23.5702 -23.5702Z"/></g><g stroke-linejoin="miter" stroke-opacity="1.0" fill-opacity="0.0" stroke="rgb(0,0,0)" stroke-width="1.8475208614068024" fill="rgb(0,0,0)" stroke-linecap="butt" stroke-miterlimit="10.0"><path d="M 216.6667,200.0000 c 0.0000,-9.2047 -7.4619,-16.6667 -16.6667 -16.6667c -9.2047,-0.0000 -16.6667,7.4619 -16.6667 16.6667c -0.0000,9.2047 7.4619,16.6667 16.6667 16.6667c 9.2047,0.0000 16.6667,-7.4619 16.6667 -16.6667Z"/></g><g stroke-linejoin="miter" stroke-opacity="1.0" fill-opacity="0.0" stroke="rgb(0,0,0)" stroke-width="1.8475208614068024" fill="rgb(0,0,0)" stroke-linecap="butt" stroke-miterlimit="10.0"><path d="M 78.4518,200.0000 c 0.0000,-6.5087 -5.2764,-11.7851 -11.7851 -11.7851c -6.5087,-0.0000 -11.7851,5.2764 -11.7851 11.7851c -0.0000,6.5087 5.2764,11.7851 11.7851 11.7851c 6.5087,0.0000 11.7851,-5.2764 11.7851 -11.7851Z"/></g><g stroke-linejoin="miter" stroke-opacity="1.0" fill-opacity="0.0" stroke="rgb(0,0,0)" stroke-width="1.8475208614068024" fill="rgb(0,0,0)" stroke-linecap="butt" stroke-miterlimit="10.0"><path d="M 366.6667,66.6667 c 0.0000,-18.4095 -14.9238,-33.3333 -33.3333 -33.3333c -18.4095,-0.0000 -33.3333,14.9238 -33.3333 33.3333c -0.0000,18.4095 14.9238,33.3333 33.3333 33.3333c 18.4095,0.0000 33.3333,-14.9238 33.3333 -33.3333Z"/></g><g stroke-linejoin="miter" stroke-opacity="1.0" fill-opacity="0.0" stroke="rgb(0,0,0)" stroke-width="1.8475208614068024" fill="rgb(0,0,0)" stroke-linecap="butt" stroke-miterlimit="10.0"><path d="M 247.1405,66.6667 c 0.0000,-26.0350 -21.1055,-47.1405 -47.1405 -47.1405c -26.0350,-0.0000 -47.1405,21.1055 -47.1405 47.1405c -0.0000,26.0350 21.1055,47.1405 47.1405 47.1405c 26.0350,0.0000 47.1405,-21.1055 47.1405 -47.1405Z"/></g><g stroke-linejoin="miter" stroke-opacity="1.0" fill-opacity="0.0" stroke="rgb(0,0,0)" stroke-width="1.8475208614068024" fill="rgb(0,0,0)" stroke-linecap="butt" stroke-miterlimit="10.0"><path d="M 133.3333,66.6667 c 0.0000,-36.8190 -29.8477,-66.6667 -66.6667 -66.6667c -36.8190,-0.0000 -66.6667,29.8477 -66.6667 66.6667c -0.0000,36.8190 29.8477,66.6667 66.6667 66.6667c 36.8190,0.0000 66.6667,-29.8477 66.6667 -66.6667Z"/></g></svg>